<svg xmlns="http://www.w3.org/2000/svg" xmlns:xlink="http://www.w3.org/1999/xlink" width="1660" height="624.46"><rect width="1660" height="624.46" rx="5" ry="5" class="a"/><svg y="0%" x="0%"><circle cx="20" cy="20" r="6" fill="#ff5f58"/><circle cx="40" cy="20" r="6" fill="#ffbd2e"/><circle cx="60" cy="20" r="6" fill="#18c132"/></svg><svg height="564.46" viewBox="0 0 162 56.446" width="1620" x="15" xmlns="http://www.w3.org/2000/svg" xmlns:xlink="http://www.w3.org/1999/xlink" y="50"><style>@keyframes r{0%{transform:translateX(0)}3.93%{transform:translateX(-162px)}4.21%{transform:translateX(-486px)}9.04%{transform:translateX(-648px)}10.13%{transform:translateX(-810px)}10.64%{transform:translateX(-972px)}10.8%{transform:translateX(-1134px)}11.35%{transform:translateX(-1296px)}11.75%{transform:translateX(-1458px)}12.68%{transform:translateX(-1620px)}15.43%{transform:translateX(-1782px)}16.56%{transform:translateX(-1944px)}17.05%{transform:translateX(-2106px)}17.55%{transform:translateX(-2268px)}22.64%{transform:translateX(-2754px)}23.56%{transform:translateX(-2916px)}23.57%{transform:translateX(-3078px)}24.17%{transform:translateX(-3240px)}24.19%{transform:translateX(-3402px)}27.81%{transform:translateX(-3564px)}27.83%{transform:translateX(-3726px)}31.01%{transform:translateX(-3888px)}31.03%{transform:translateX(-4050px)}32.38%{transform:translateX(-4212px)}32.41%{transform:translateX(-4374px)}33.56%{transform:translateX(-4860px)}36.94%{transform:translateX(-5022px)}41.49%{transform:translateX(-5184px)}41.5%{transform:translateX(-5346px)}50.25%{transform:translateX(-5508px)}50.74%{transform:translateX(-5832px)}52.99%{transform:translateX(-5994px)}53.53%{transform:translateX(-6156px)}53.88%{transform:translateX(-6318px)}55.07%{transform:translateX(-6480px)}55.17%{transform:translateX(-6642px)}63.04%{transform:translateX(-7614px)}63.05%{transform:translateX(-7938px)}63.06%{transform:translateX(-8100px)}63.07%{transform:translateX(-8262px)}63.09%{transform:translateX(-8424px)}63.13%{transform:translateX(-8586px)}63.16%{transform:translateX(-9072px)}63.94%{transform:translateX(-9234px)}77.11%{transform:translateX(-9396px)}77.39%{transform:translateX(-9720px)}77.68%{transform:translateX(-10044px)}to{transform:translateX(-10206px)}}.a{fill:#282d35}.f,.g,.h{fill:#a8cc8c;white-space:pre}.g,.h{fill:#66c2cd}.h{fill:#71bef2}.i{fill:#e88388}.i,.j{white-space:pre}.j,.k{fill:#b9c0cb}.l{fill:#282d35}.l,.m,.n,.t,.u{white-space:pre}.m{fill:#e88388;font-weight:700}.n,.t,.u{fill:#d290e4}.t,.u{fill:#73bef3}.u{fill:#dbab79}</style><g font-family="Monaco,Consolas,Menlo,'Bitstream Vera Sans Mono','Powerline Symbols',monospace" font-size="1.67"><defs><symbol id="1"><text y="1.67" class="f">∫</text><text x="2.004" y="1.67" class="g">pyyt</text><text x="7.014" y="1.67" class="h">git:(</text><text x="12.024" y="1.67" class="i">enhancements</text><text x="24.048" y="1.67" class="h">)</text></symbol><symbol id="2"><text y="1.67" class="f">∫</text><text x="2.004" y="1.67" class="g">pyyt</text><text x="7.014" y="1.67" class="h">git:(</text><text x="12.024" y="1.67" class="i">enhancements</text><text x="24.048" y="1.67" class="h">)</text><text x="26.052" y="1.67" class="j">python</text></symbol><symbol id="3"><text y="1.67" class="f">∫</text><text x="2.004" y="1.67" class="g">pyyt</text><text x="7.014" y="1.67" class="h">git:(</text><text x="12.024" y="1.67" class="i">enhancements</text><text x="24.048" y="1.67" class="h">)</text><text x="26.052" y="1.67" class="j">python</text><text x="33.066" y="1.67" class="j">pyyt.py</text></symbol><symbol id="4"><text x="6.012" y="1.67" class="g">____</text><text x="14.028" y="1.67" class="g">__</text><text x="20.04" y="1.67" class="g">__</text><text x="24.048" y="1.67" class="g">__</text><text x="30.06" y="1.67" class="g">__</text><text x="34.068" y="1.67" class="g">______</text></symbol><symbol id="5"><text x="5.01" y="1.67" class="g">/\</text><text x="9.018" y="1.67" class="g">_`\</text><text x="13.026" y="1.67" class="g">/\</text><text x="16.032" y="1.67" class="g">\</text><text x="19.038" y="1.67" class="g">/\</text><text x="22.044" y="1.67" class="g">\/\</text><text x="26.052" y="1.67" class="g">\</text><text x="29.058" y="1.67" class="g">/\</text><text x="32.064" y="1.67" class="g">\/\__</text><text x="39.078" y="1.67" class="g">_\</text></symbol><symbol id="6"><text x="5.01" y="1.67" class="g">\</text><text x="7.014" y="1.67" class="g">\</text><text x="9.018" y="1.67" class="g">\L\</text><text x="13.026" y="1.67" class="g">\</text><text x="15.03" y="1.67" class="g">`\`\\/&apos;/\</text><text x="25.05" y="1.67" class="g">`\`\\/&apos;/\/_/\</text><text x="39.078" y="1.67" class="g">\/</text></symbol><symbol id="7"><text x="6.012" y="1.67" class="g">\</text><text x="8.016" y="1.67" class="g">\</text><text x="10.02" y="1.67" class="g">,__/`\</text><text x="17.034" y="1.67" class="g">`\</text><text x="20.04" y="1.67" class="g">/&apos;</text><text x="24.048" y="1.67" class="g">`\</text><text x="27.054" y="1.67" class="g">`\</text><text x="30.06" y="1.67" class="g">/&apos;</text><text x="36.072" y="1.67" class="g">\</text><text x="38.076" y="1.67" class="g">\</text><text x="40.08" y="1.67" class="g">\</text></symbol><symbol id="8"><text x="7.014" y="1.67" class="g">\</text><text x="9.018" y="1.67" class="g">\</text><text x="11.022" y="1.67" class="g">\/</text><text x="16.032" y="1.67" class="g">`\</text><text x="19.038" y="1.67" class="g">\</text><text x="21.042" y="1.67" class="g">\</text><text x="26.052" y="1.67" class="g">`\</text><text x="29.058" y="1.67" class="g">\</text><text x="31.062" y="1.67" class="g">\</text><text x="37.074" y="1.67" class="g">\</text><text x="39.078" y="1.67" class="g">\</text><text x="41.082" y="1.67" class="g">\</text></symbol><symbol id="9"><text x="8.016" y="1.67" class="g">\</text><text x="10.02" y="1.67" class="g">\_\</text><text x="18.036" y="1.67" class="g">\</text><text x="20.04" y="1.67" class="g">\_\</text><text x="28.056" y="1.67" class="g">\</text><text x="30.06" y="1.67" class="g">\_\</text><text x="38.076" y="1.67" class="g">\</text><text x="40.08" y="1.67" class="g">\_\</text></symbol><symbol id="10"><text x="9.018" y="1.67" class="g">\/_/</text><text x="19.038" y="1.67" class="g">\/_/</text><text x="29.058" y="1.67" class="g">\/_/</text><text x="39.078" y="1.67" class="g">\/_/</text></symbol><symbol id="11"><text y="1.67" class="g">Select</text><text x="7.014" y="1.67" class="g">your</text><text x="12.024" y="1.67" class="g">option:</text></symbol><symbol id="12"><path class="k" d="M2.004 0h36v2.171h-36z"/><text x="2.004" y="1.67" class="l">Download an entire playlist as audio</text></symbol><symbol id="13"><text x="2.004" y="1.67" class="j">Download</text><text x="11.022" y="1.67" class="j">a</text><text x="13.026" y="1.67" class="j">single</text><text x="20.04" y="1.67" class="j">video</text><text x="26.052" y="1.67" class="j">as</text><text x="29.058" y="1.67" class="j">audio</text></symbol><symbol id="14"><text y="1.67" class="m">&gt;</text><path class="k" d="M2.004 0h36v2.171h-36z"/><text x="2.004" y="1.67" class="l">Download an entire playlist as audio</text></symbol><symbol id="15"><text y="1.67" class="m">&gt;</text><text x="2.004" y="1.67" class="j">Download</text><text x="11.022" y="1.67" class="j">an</text><text x="14.028" y="1.67" class="j">entire</text><text x="21.042" y="1.67" class="j">playlist</text><text x="30.06" y="1.67" class="j">as</text><text x="33.066" y="1.67" class="j">audio</text></symbol><symbol id="16"><path class="k" d="M2.004 0h32v2.171h-32z"/><text x="2.004" y="1.67" class="l">Download a single video as audio</text></symbol><symbol id="17"><text x="2.004" y="1.67" class="j">Download</text><text x="11.022" y="1.67" class="j">an</text><text x="14.028" y="1.67" class="j">entire</text><text x="21.042" y="1.67" class="j">playlist</text><text x="30.06" y="1.67" class="j">as</text><text x="33.066" y="1.67" class="j">audio</text></symbol><symbol id="18"><text y="1.67" class="m">&gt;</text><path class="k" d="M2.004 0h32v2.171h-32z"/><text x="2.004" y="1.67" class="l">Download a single video as audio</text></symbol><symbol id="19"><text y="1.67" class="n">Please</text><text x="7.014" y="1.67" class="n">insert</text><text x="14.028" y="1.67" class="n">the</text><text x="18.036" y="1.67" class="n">YouTube</text><text x="26.052" y="1.67" class="n">video</text><text x="32.064" y="1.67" class="n">URL:</text><text x="37.074" y="1.67" class="j">https://youtu.be/DXWwCggFROk</text></symbol><symbol id="20"><text y="1.67" class="n">Please</text><text x="7.014" y="1.67" class="n">enter</text><text x="13.026" y="1.67" class="n">the</text><text x="17.034" y="1.67" class="n">download</text><text x="26.052" y="1.67" class="n">folder</text><text x="33.066" y="1.67" class="n">(default:</text><text x="43.086" y="1.67" class="g">/Users/dvitto/projects/pyyt/downloads/</text><text x="81.162" y="1.67" class="n">):</text></symbol><symbol id="21"><text y="1.67" class="j">[youtube]</text><text x="10.02" y="1.67" class="j">Extracting</text><text x="21.042" y="1.67" class="j">URL:</text><text x="26.052" y="1.67" class="j">https://youtu.be/DXWwCggFROk</text></symbol><symbol id="22"><text y="1.67" class="j">[youtube]</text><text x="10.02" y="1.67" class="j">DXWwCggFROk:</text><text x="23.046" y="1.67" class="j">Downloading</text><text x="35.07" y="1.67" class="j">webpage</text></symbol><symbol id="23"><text y="1.67" class="j">[youtube]</text><text x="10.02" y="1.67" class="j">DXWwCggFROk:</text><text x="23.046" y="1.67" class="j">Downloading</text><text x="35.07" y="1.67" class="j">ios</text><text x="39.078" y="1.67" class="j">player</text><text x="46.092" y="1.67" class="j">API</text><text x="50.1" y="1.67" class="j">JSON</text></symbol><symbol id="24"><text y="1.67" class="j">[youtube]</text><text x="10.02" y="1.67" class="j">DXWwCggFROk:</text><text x="23.046" y="1.67" class="j">Downloading</text><text x="35.07" y="1.67" class="j">android</text><text x="43.086" y="1.67" class="j">player</text><text x="50.1" y="1.67" class="j">API</text><text x="54.108" y="1.67" class="j">JSON</text></symbol><symbol id="25"><text y="1.67" class="j">[youtube]</text><text x="10.02" y="1.67" class="j">DXWwCggFROk:</text><text x="23.046" y="1.67" class="j">Downloading</text><text x="35.07" y="1.67" class="j">m3u8</text><text x="40.08" y="1.67" class="j">information</text></symbol><symbol id="26"><text y="1.67" class="j">[info]</text><text x="7.014" y="1.67" class="j">DXWwCggFROk:</text><text x="20.04" y="1.67" class="j">Downloading</text><text x="32.064" y="1.67" class="j">1</text><text x="34.068" y="1.67" class="j">format(s):</text><text x="45.09" y="1.67" class="j">251</text></symbol><symbol id="27"><text y="1.67" class="j">[download]</text><text x="11.022" y="1.67" class="j">Sleeping</text><text x="20.04" y="1.67" class="j">2.00</text><text x="25.05" y="1.67" class="j">seconds</text><text x="33.066" y="1.67" class="j">...</text></symbol><symbol id="28"><text y="1.67" class="j">[download]</text><text x="11.022" y="1.67" class="j">Destination:</text><text x="24.048" y="1.67" class="j">/Users/dvitto/projects/pyyt/downloads//Is</text><text x="66.132" y="1.67" class="j">AI</text><text x="69.138" y="1.67" class="j">really</text><text x="76.152" y="1.67" class="j">getting</text><text x="84.168" y="1.67" class="j">dumber？</text><text x="92.184" y="1.67" class="j">Llama2</text><text x="99.198" y="1.67" class="j">vs</text><text x="102.204" y="1.67" class="j">GPT-4.webm</text></symbol><symbol id="29"><text y="1.67" class="j">[download]</text><text x="11.022" y="1.67" class="j">100%</text><text x="16.032" y="1.67" class="j">of</text><text x="22.044" y="1.67" class="j">2.78MiB</text><text x="30.06" y="1.67" class="j">in</text><text x="33.066" y="1.67" style="white-space:pre" fill="#b9bfca" font-weight="700">00:00:00</text><text x="42.084" y="1.67" class="j">at</text><text x="45.09" y="1.67" class="f">58.67MiB/s</text></symbol><symbol id="30"><text y="1.67" class="j">[ExtractAudio]</text><text x="15.03" y="1.67" class="j">Destination:</text><text x="28.056" y="1.67" class="j">/Users/dvitto/projects/pyyt/downloads//Is</text><text x="70.14" y="1.67" class="j">AI</text><text x="73.146" y="1.67" class="j">really</text><text x="80.16" y="1.67" class="j">getting</text><text x="88.176" y="1.67" class="j">dumber？</text><text x="96.192" y="1.67" class="j">Llama2</text><text x="103.206" y="1.67" class="j">vs</text><text x="106.212" y="1.67" class="j">GPT-4.mp3</text></symbol><symbol id="31"><text y="1.67" class="j">Deleting</text><text x="9.018" y="1.67" class="j">original</text><text x="18.036" y="1.67" class="j">file</text><text x="23.046" y="1.67" class="j">/Users/dvitto/projects/pyyt/downloads//Is</text><text x="65.13" y="1.67" class="j">AI</text><text x="68.136" y="1.67" class="j">really</text><text x="75.15" y="1.67" class="j">getting</text><text x="83.166" y="1.67" class="j">dumber？</text><text x="91.182" y="1.67" class="j">Llama2</text><text x="98.196" y="1.67" class="j">vs</text><text x="101.202" y="1.67" class="j">GPT-4.webm</text><text x="112.224" y="1.67" class="j">(pass</text><text x="118.236" y="1.67" class="j">-k</text><text x="121.242" y="1.67" class="j">to</text><text x="124.248" y="1.67" class="j">keep)</text></symbol><symbol id="a"><path fill="transparent" d="M0 0h162v26H0z"/></symbol><symbol id="b"><path fill="#6f7683" d="M0 0h1.102v2.171H0z"/></symbol></defs><path class="a" d="M0 0h162v56.446H0z"/><g style="animation-duration:25.645353s;animation-iteration-count:infinite;animation-name:r;animation-timing-function:steps(1,end)"><svg width="10368"><svg><use xlink:href="#a"/><use xlink:href="#b" x="-.004"/></svg><svg x="162"><use xlink:href="#a"/><use xlink:href="#b" x="-.004"/></svg><svg x="324"><use xlink:href="#a"/><use xlink:href="#b" x="25.996"/><use xlink:href="#1"/></svg><svg x="486"><use xlink:href="#a"/><use xlink:href="#b" x="25.996"/><use xlink:href="#1"/></svg><svg x="648"><use xlink:href="#a"/><use xlink:href="#b" x="26.996"/><text y="1.67" class="f">∫</text><text x="2.004" y="1.67" class="g">pyyt</text><text x="7.014" y="1.67" class="h">git:(</text><text x="12.024" y="1.67" class="i">enhancements</text><text x="24.048" y="1.67" class="h">)</text><text x="26.052" y="1.67" class="j">p</text></svg><svg x="810"><use xlink:href="#a"/><use xlink:href="#b" x="27.996"/><text y="1.67" class="f">∫</text><text x="2.004" y="1.67" class="g">pyyt</text><text x="7.014" y="1.67" class="h">git:(</text><text x="12.024" y="1.67" class="i">enhancements</text><text x="24.048" y="1.67" class="h">)</text><text x="26.052" y="1.67" class="j">py</text></svg><svg x="972"><use xlink:href="#a"/><use xlink:href="#b" x="28.996"/><text y="1.67" class="f">∫</text><text x="2.004" y="1.67" class="g">pyyt</text><text x="7.014" y="1.67" class="h">git:(</text><text x="12.024" y="1.67" class="i">enhancements</text><text x="24.048" y="1.67" class="h">)</text><text x="26.052" y="1.67" class="j">pyt</text></svg><svg x="1134"><use xlink:href="#a"/><use xlink:href="#b" x="29.996"/><text y="1.67" class="f">∫</text><text x="2.004" y="1.67" class="g">pyyt</text><text x="7.014" y="1.67" class="h">git:(</text><text x="12.024" y="1.67" class="i">enhancements</text><text x="24.048" y="1.67" class="h">)</text><text x="26.052" y="1.67" class="j">pyth</text></svg><svg x="1296"><use xlink:href="#a"/><use xlink:href="#b" x="30.996"/><text y="1.67" class="f">∫</text><text x="2.004" y="1.67" class="g">pyyt</text><text x="7.014" y="1.67" class="h">git:(</text><text x="12.024" y="1.67" class="i">enhancements</text><text x="24.048" y="1.67" class="h">)</text><text x="26.052" y="1.67" class="j">pytho</text></svg><svg x="1458"><use xlink:href="#a"/><use xlink:href="#b" x="31.996"/><use xlink:href="#2"/></svg><svg x="1620"><use xlink:href="#a"/><use xlink:href="#b" x="32.996"/><use xlink:href="#2"/></svg><svg x="1782"><use xlink:href="#a"/><use xlink:href="#b" x="33.996"/><text y="1.67" class="f">∫</text><text x="2.004" y="1.67" class="g">pyyt</text><text x="7.014" y="1.67" class="h">git:(</text><text x="12.024" y="1.67" class="i">enhancements</text><text x="24.048" y="1.67" class="h">)</text><text x="26.052" y="1.67" class="j">python</text><text x="33.066" y="1.67" class="j">p</text></svg><svg x="1944"><use xlink:href="#a"/><use xlink:href="#b" x="34.996"/><text y="1.67" class="f">∫</text><text x="2.004" y="1.67" class="g">pyyt</text><text x="7.014" y="1.67" class="h">git:(</text><text x="12.024" y="1.67" class="i">enhancements</text><text x="24.048" y="1.67" class="h">)</text><text x="26.052" y="1.67" class="j">python</text><text x="33.066" y="1.67" class="j">py</text></svg><svg x="2106"><use xlink:href="#a"/><use xlink:href="#b" x="35.996"/><text y="1.67" class="f">∫</text><text x="2.004" y="1.67" class="g">pyyt</text><text x="7.014" y="1.67" class="h">git:(</text><text x="12.024" y="1.67" class="i">enhancements</text><text x="24.048" y="1.67" class="h">)</text><text x="26.052" y="1.67" class="j">python</text><text x="33.066" y="1.67" class="j">pyy</text></svg><svg x="2268"><use xlink:href="#a"/><use xlink:href="#b" x="40.996"/><use xlink:href="#3"/></svg><svg x="2430"><use xlink:href="#a"/><use xlink:href="#b" x="39.996"/><use xlink:href="#3"/></svg><svg x="2592"><use xlink:href="#a"/><use xlink:href="#b" x="-.004" y="2.146"/><use xlink:href="#3"/></svg><svg x="2754"><use xlink:href="#a"/><use xlink:href="#b" x="-.004" y="2.146"/><use xlink:href="#3"/></svg><svg x="2916"><use xlink:href="#a"/><use xlink:href="#b" x="-.004"/></svg><svg x="3078"><use xlink:href="#a"/><use xlink:href="#b" x="-.004" y="26.027"/><use xlink:href="#4"/><use xlink:href="#5" y="2.171"/><use xlink:href="#6" y="4.342"/><use xlink:href="#7" y="6.513"/><use xlink:href="#8" y="8.684"/><use xlink:href="#9" y="10.855"/><use xlink:href="#10" y="13.026"/><use xlink:href="#11" y="23.881"/></svg><svg x="3240"><use xlink:href="#a"/><use xlink:href="#4"/><use xlink:href="#5" y="2.171"/><use xlink:href="#6" y="4.342"/><use xlink:href="#7" y="6.513"/><use xlink:href="#8" y="8.684"/><use xlink:href="#9" y="10.855"/><use xlink:href="#10" y="13.026"/><use xlink:href="#11" y="23.881"/><use xlink:href="#12" y="26.052"/><use xlink:href="#13" y="28.223"/></svg><svg x="3402"><use xlink:href="#a"/><use xlink:href="#4"/><use xlink:href="#5" y="2.171"/><use xlink:href="#6" y="4.342"/><use xlink:href="#7" y="6.513"/><use xlink:href="#8" y="8.684"/><use xlink:href="#9" y="10.855"/><use xlink:href="#10" y="13.026"/><use xlink:href="#11" y="23.881"/><use xlink:href="#14" y="26.052"/><use xlink:href="#13" y="28.223"/></svg><svg x="3564"><use xlink:href="#a"/><use xlink:href="#4"/><use xlink:href="#5" y="2.171"/><use xlink:href="#6" y="4.342"/><use xlink:href="#7" y="6.513"/><use xlink:href="#8" y="8.684"/><use xlink:href="#9" y="10.855"/><use xlink:href="#10" y="13.026"/><use xlink:href="#11" y="23.881"/><use xlink:href="#15" y="26.052"/><use xlink:href="#16" y="28.223"/></svg><svg x="3726"><use xlink:href="#a"/><use xlink:href="#4"/><use xlink:href="#5" y="2.171"/><use xlink:href="#6" y="4.342"/><use xlink:href="#7" y="6.513"/><use xlink:href="#8" y="8.684"/><use xlink:href="#9" y="10.855"/><use xlink:href="#10" y="13.026"/><use xlink:href="#11" y="23.881"/><use xlink:href="#17" y="26.052"/><use xlink:href="#18" y="28.223"/></svg><svg x="3888"><use xlink:href="#a"/><use xlink:href="#4"/><use xlink:href="#5" y="2.171"/><use xlink:href="#6" y="4.342"/><use xlink:href="#7" y="6.513"/><use xlink:href="#8" y="8.684"/><use xlink:href="#9" y="10.855"/><use xlink:href="#10" y="13.026"/><use xlink:href="#11" y="23.881"/><use xlink:href="#12" y="26.052"/><text y="29.893" class="m">&gt;</text><text x="2.004" y="29.893" class="j">Download</text><text x="11.022" y="29.893" class="j">a</text><text x="13.026" y="29.893" class="j">single</text><text x="20.04" y="29.893" class="j">video</text><text x="26.052" y="29.893" class="j">as</text><text x="29.058" y="29.893" class="j">audio</text></svg><svg x="4050"><use xlink:href="#a"/><use xlink:href="#4"/><use xlink:href="#5" y="2.171"/><use xlink:href="#6" y="4.342"/><use xlink:href="#7" y="6.513"/><use xlink:href="#8" y="8.684"/><use xlink:href="#9" y="10.855"/><use xlink:href="#10" y="13.026"/><use xlink:href="#11" y="23.881"/><use xlink:href="#14" y="26.052"/><use xlink:href="#13" y="28.223"/></svg><svg x="4212"><use xlink:href="#a"/><use xlink:href="#4"/><use xlink:href="#5" y="2.171"/><use xlink:href="#6" y="4.342"/><use xlink:href="#7" y="6.513"/><use xlink:href="#8" y="8.684"/><use xlink:href="#9" y="10.855"/><use xlink:href="#10" y="13.026"/><use xlink:href="#11" y="23.881"/><use xlink:href="#15" y="26.052"/><use xlink:href="#16" y="28.223"/></svg><svg x="4374"><use xlink:href="#a"/><use xlink:href="#4"/><use xlink:href="#5" y="2.171"/><use xlink:href="#6" y="4.342"/><use xlink:href="#7" y="6.513"/><use xlink:href="#8" y="8.684"/><use xlink:href="#9" y="10.855"/><use xlink:href="#10" y="13.026"/><use xlink:href="#11" y="23.881"/><use xlink:href="#17" y="26.052"/><use xlink:href="#18" y="28.223"/></svg><svg x="4536"><use xlink:href="#a"/><use xlink:href="#4"/><use xlink:href="#5" y="2.171"/><use xlink:href="#6" y="4.342"/><use xlink:href="#7" y="6.513"/><use xlink:href="#8" y="8.684"/><use xlink:href="#9" y="10.855"/><use xlink:href="#10" y="13.026"/><use xlink:href="#11" y="23.881"/></svg><svg x="4698"><use xlink:href="#a"/><use xlink:href="#b" x="-.004" y="26.027"/><use xlink:href="#4"/><use xlink:href="#5" y="2.171"/><use xlink:href="#6" y="4.342"/><use xlink:href="#7" y="6.513"/><use xlink:href="#8" y="8.684"/><use xlink:href="#9" y="10.855"/><use xlink:href="#10" y="13.026"/><use xlink:href="#11" y="23.881"/></svg><svg x="4860"><use xlink:href="#a"/><use xlink:href="#b" x="36.996" y="26.027"/><use xlink:href="#4"/><use xlink:href="#5" y="2.171"/><use xlink:href="#6" y="4.342"/><use xlink:href="#7" y="6.513"/><use xlink:href="#8" y="8.684"/><use xlink:href="#9" y="10.855"/><use xlink:href="#10" y="13.026"/><use xlink:href="#11" y="23.881"/><text y="27.722" class="n">Please</text><text x="7.014" y="27.722" class="n">insert</text><text x="14.028" y="27.722" class="n">the</text><text x="18.036" y="27.722" class="n">YouTube</text><text x="26.052" y="27.722" class="n">video</text><text x="32.064" y="27.722" class="n">URL:</text></svg><svg x="5022"><use xlink:href="#a"/><use xlink:href="#b" x="64.996" y="26.027"/><use xlink:href="#4"/><use xlink:href="#5" y="2.171"/><use xlink:href="#6" y="4.342"/><use xlink:href="#7" y="6.513"/><use xlink:href="#8" y="8.684"/><use xlink:href="#9" y="10.855"/><use xlink:href="#10" y="13.026"/><use xlink:href="#11" y="23.881"/><use xlink:href="#19" y="26.052"/></svg><svg x="5184"><use xlink:href="#a"/><use xlink:href="#b" x="-.004" y="28.198"/><use xlink:href="#4"/><use xlink:href="#5" y="2.171"/><use xlink:href="#6" y="4.342"/><use xlink:href="#7" y="6.513"/><use xlink:href="#8" y="8.684"/><use xlink:href="#9" y="10.855"/><use xlink:href="#10" y="13.026"/><use xlink:href="#11" y="23.881"/><use xlink:href="#19" y="26.052"/></svg><svg x="5346"><use xlink:href="#a"/><use xlink:href="#b" x="83.996" y="28.198"/><use xlink:href="#4"/><use xlink:href="#5" y="2.171"/><use xlink:href="#6" y="4.342"/><use xlink:href="#7" y="6.513"/><use xlink:href="#8" y="8.684"/><use xlink:href="#9" y="10.855"/><use xlink:href="#10" y="13.026"/><use xlink:href="#11" y="23.881"/><use xlink:href="#19" y="26.052"/><use xlink:href="#20" y="28.223"/></svg><svg x="5508"><use xlink:href="#a"/><use xlink:href="#b" x="-.004" y="30.369"/><use xlink:href="#4"/><use xlink:href="#5" y="2.171"/><use xlink:href="#6" y="4.342"/><use xlink:href="#7" y="6.513"/><use xlink:href="#8" y="8.684"/><use xlink:href="#9" y="10.855"/><use xlink:href="#10" y="13.026"/><use xlink:href="#11" y="23.881"/><use xlink:href="#19" y="26.052"/><use xlink:href="#20" y="28.223"/></svg><svg x="5670"><use xlink:href="#a"/><use xlink:href="#b" x="-.004" y="32.54"/><use xlink:href="#4"/><use xlink:href="#5" y="2.171"/><use xlink:href="#6" y="4.342"/><use xlink:href="#7" y="6.513"/><use xlink:href="#8" y="8.684"/><use xlink:href="#9" y="10.855"/><use xlink:href="#10" y="13.026"/><use xlink:href="#11" y="23.881"/><use xlink:href="#19" y="26.052"/><use xlink:href="#20" y="28.223"/><use xlink:href="#21" y="30.394"/></svg><svg x="5832"><use xlink:href="#a"/><use xlink:href="#b" x="-.004" y="34.711"/><use xlink:href="#4"/><use xlink:href="#5" y="2.171"/><use xlink:href="#6" y="4.342"/><use xlink:href="#7" y="6.513"/><use xlink:href="#8" y="8.684"/><use xlink:href="#9" y="10.855"/><use xlink:href="#10" y="13.026"/><use xlink:href="#11" y="23.881"/><use xlink:href="#19" y="26.052"/><use xlink:href="#20" y="28.223"/><use xlink:href="#21" y="30.394"/><use xlink:href="#22" y="32.565"/></svg><svg x="5994"><use xlink:href="#a"/><use xlink:href="#b" x="-.004" y="36.882"/><use xlink:href="#4"/><use xlink:href="#5" y="2.171"/><use xlink:href="#6" y="4.342"/><use xlink:href="#7" y="6.513"/><use xlink:href="#8" y="8.684"/><use xlink:href="#9" y="10.855"/><use xlink:href="#10" y="13.026"/><use xlink:href="#11" y="23.881"/><use xlink:href="#19" y="26.052"/><use xlink:href="#20" y="28.223"/><use xlink:href="#21" y="30.394"/><use xlink:href="#22" y="32.565"/><use xlink:href="#23" y="34.736"/></svg><svg x="6156"><use xlink:href="#a"/><use xlink:href="#b" x="-.004" y="39.053"/><use xlink:href="#4"/><use xlink:href="#5" y="2.171"/><use xlink:href="#6" y="4.342"/><use xlink:href="#7" y="6.513"/><use xlink:href="#8" y="8.684"/><use xlink:href="#9" y="10.855"/><use xlink:href="#10" y="13.026"/><use xlink:href="#11" y="23.881"/><use xlink:href="#19" y="26.052"/><use xlink:href="#20" y="28.223"/><use xlink:href="#21" y="30.394"/><use xlink:href="#22" y="32.565"/><use xlink:href="#23" y="34.736"/><use xlink:href="#24" y="36.907"/></svg><svg x="6318"><use xlink:href="#a"/><use xlink:href="#b" x="-.004" y="41.224"/><use xlink:href="#4"/><use xlink:href="#5" y="2.171"/><use xlink:href="#6" y="4.342"/><use xlink:href="#7" y="6.513"/><use xlink:href="#8" y="8.684"/><use xlink:href="#9" y="10.855"/><use xlink:href="#10" y="13.026"/><use xlink:href="#11" y="23.881"/><use xlink:href="#19" y="26.052"/><use xlink:href="#20" y="28.223"/><use xlink:href="#21" y="30.394"/><use xlink:href="#22" y="32.565"/><use xlink:href="#23" y="34.736"/><use xlink:href="#24" y="36.907"/><use xlink:href="#25" y="39.078"/></svg><svg x="6480"><use xlink:href="#a"/><use xlink:href="#b" x="-.004" y="43.395"/><use xlink:href="#4"/><use xlink:href="#5" y="2.171"/><use xlink:href="#6" y="4.342"/><use xlink:href="#7" y="6.513"/><use xlink:href="#8" y="8.684"/><use xlink:href="#9" y="10.855"/><use xlink:href="#10" y="13.026"/><use xlink:href="#11" y="23.881"/><use xlink:href="#19" y="26.052"/><use xlink:href="#20" y="28.223"/><use xlink:href="#21" y="30.394"/><use xlink:href="#22" y="32.565"/><use xlink:href="#23" y="34.736"/><use xlink:href="#24" y="36.907"/><use xlink:href="#25" y="39.078"/><use xlink:href="#26" y="41.249"/></svg><svg x="6642"><use xlink:href="#a"/><use xlink:href="#b" x="-.004" y="45.566"/><use xlink:href="#4"/><use xlink:href="#5" y="2.171"/><use xlink:href="#6" y="4.342"/><use xlink:href="#7" y="6.513"/><use xlink:href="#8" y="8.684"/><use xlink:href="#9" y="10.855"/><use xlink:href="#10" y="13.026"/><use xlink:href="#11" y="23.881"/><use xlink:href="#19" y="26.052"/><use xlink:href="#20" y="28.223"/><use xlink:href="#21" y="30.394"/><use xlink:href="#22" y="32.565"/><use xlink:href="#23" y="34.736"/><use xlink:href="#24" y="36.907"/><use xlink:href="#25" y="39.078"/><use xlink:href="#26" y="41.249"/><use xlink:href="#27" y="43.42"/></svg><svg x="6804"><use xlink:href="#a"/><use xlink:href="#b" x="-.004" y="47.737"/><use xlink:href="#4"/><use xlink:href="#5" y="2.171"/><use xlink:href="#6" y="4.342"/><use xlink:href="#7" y="6.513"/><use xlink:href="#8" y="8.684"/><use xlink:href="#9" y="10.855"/><use xlink:href="#10" y="13.026"/><use xlink:href="#11" y="23.881"/><use xlink:href="#19" y="26.052"/><use xlink:href="#20" y="28.223"/><use xlink:href="#21" y="30.394"/><use xlink:href="#22" y="32.565"/><use xlink:href="#23" y="34.736"/><use xlink:href="#24" y="36.907"/><use xlink:href="#25" y="39.078"/><use xlink:href="#26" y="41.249"/><use xlink:href="#27" y="43.42"/><use xlink:href="#28" y="45.591"/></svg><svg x="6966"><use xlink:href="#a"/><use xlink:href="#b" x="58.996" y="47.737"/><use xlink:href="#4"/><use xlink:href="#5" y="2.171"/><use xlink:href="#6" y="4.342"/><use xlink:href="#7" y="6.513"/><use xlink:href="#8" y="8.684"/><use xlink:href="#9" y="10.855"/><use xlink:href="#10" y="13.026"/><use xlink:href="#11" y="23.881"/><use xlink:href="#19" y="26.052"/><use xlink:href="#20" y="28.223"/><use xlink:href="#21" y="30.394"/><use xlink:href="#22" y="32.565"/><use xlink:href="#23" y="34.736"/><use xlink:href="#24" y="36.907"/><use xlink:href="#25" y="39.078"/><use xlink:href="#26" y="41.249"/><use xlink:href="#27" y="43.42"/><use xlink:href="#28" y="45.591"/><text y="49.432" class="j">[download]</text><text x="13.026" y="49.432" class="t">0.0%</text><text x="18.036" y="49.432" class="j">of</text><text x="24.048" y="49.432" class="j">2.78MiB</text><text x="32.064" y="49.432" class="j">at</text><text x="36.072" y="49.432" class="f">Unknown</text><text x="44.088" y="49.432" class="f">B/s</text><text x="48.096" y="49.432" class="j">ETA</text><text x="52.104" y="49.432" class="u">Unknown</text></svg><svg x="7128"><use xlink:href="#a"/><use xlink:href="#b" x="56.996" y="47.737"/><use xlink:href="#4"/><use xlink:href="#5" y="2.171"/><use xlink:href="#6" y="4.342"/><use xlink:href="#7" y="6.513"/><use xlink:href="#8" y="8.684"/><use xlink:href="#9" y="10.855"/><use xlink:href="#10" y="13.026"/><use xlink:href="#11" y="23.881"/><use xlink:href="#19" y="26.052"/><use xlink:href="#20" y="28.223"/><use xlink:href="#21" y="30.394"/><use xlink:href="#22" y="32.565"/><use xlink:href="#23" y="34.736"/><use xlink:href="#24" y="36.907"/><use xlink:href="#25" y="39.078"/><use xlink:href="#26" y="41.249"/><use xlink:href="#27" y="43.42"/><use xlink:href="#28" y="45.591"/><text y="49.432" class="j">[download]</text><text x="13.026" y="49.432" class="t">0.1%</text><text x="18.036" y="49.432" class="j">of</text><text x="24.048" y="49.432" class="j">2.78MiB</text><text x="32.064" y="49.432" class="j">at</text><text x="38.076" y="49.432" class="f">2.71MiB/s</text><text x="48.096" y="49.432" class="j">ETA</text><text x="52.104" y="49.432" class="u">00:01</text></svg><svg x="7290"><use xlink:href="#a"/><use xlink:href="#b" x="56.996" y="47.737"/><use xlink:href="#4"/><use xlink:href="#5" y="2.171"/><use xlink:href="#6" y="4.342"/><use xlink:href="#7" y="6.513"/><use xlink:href="#8" y="8.684"/><use xlink:href="#9" y="10.855"/><use xlink:href="#10" y="13.026"/><use xlink:href="#11" y="23.881"/><use xlink:href="#19" y="26.052"/><use xlink:href="#20" y="28.223"/><use xlink:href="#21" y="30.394"/><use xlink:href="#22" y="32.565"/><use xlink:href="#23" y="34.736"/><use xlink:href="#24" y="36.907"/><use xlink:href="#25" y="39.078"/><use xlink:href="#26" y="41.249"/><use xlink:href="#27" y="43.42"/><use xlink:href="#28" y="45.591"/><text y="49.432" class="j">[download]</text><text x="13.026" y="49.432" class="t">0.2%</text><text x="18.036" y="49.432" class="j">of</text><text x="24.048" y="49.432" class="j">2.78MiB</text><text x="32.064" y="49.432" class="j">at</text><text x="38.076" y="49.432" class="f">4.48MiB/s</text><text x="48.096" y="49.432" class="j">ETA</text><text x="52.104" y="49.432" class="u">00:00</text></svg><svg x="7452"><use xlink:href="#a"/><use xlink:href="#b" x="56.996" y="47.737"/><use xlink:href="#4"/><use xlink:href="#5" y="2.171"/><use xlink:href="#6" y="4.342"/><use xlink:href="#7" y="6.513"/><use xlink:href="#8" y="8.684"/><use xlink:href="#9" y="10.855"/><use xlink:href="#10" y="13.026"/><use xlink:href="#11" y="23.881"/><use xlink:href="#19" y="26.052"/><use xlink:href="#20" y="28.223"/><use xlink:href="#21" y="30.394"/><use xlink:href="#22" y="32.565"/><use xlink:href="#23" y="34.736"/><use xlink:href="#24" y="36.907"/><use xlink:href="#25" y="39.078"/><use xlink:href="#26" y="41.249"/><use xlink:href="#27" y="43.42"/><use xlink:href="#28" y="45.591"/><text y="49.432" class="j">[download]</text><text x="13.026" y="49.432" class="t">0.5%</text><text x="18.036" y="49.432" class="j">of</text><text x="24.048" y="49.432" class="j">2.78MiB</text><text x="32.064" y="49.432" class="j">at</text><text x="38.076" y="49.432" class="f">7.32MiB/s</text><text x="48.096" y="49.432" class="j">ETA</text><text x="52.104" y="49.432" class="u">00:00</text></svg><svg x="7614"><use xlink:href="#a"/><use xlink:href="#b" x="56.996" y="47.737"/><use xlink:href="#4"/><use xlink:href="#5" y="2.171"/><use xlink:href="#6" y="4.342"/><use xlink:href="#7" y="6.513"/><use xlink:href="#8" y="8.684"/><use xlink:href="#9" y="10.855"/><use xlink:href="#10" y="13.026"/><use xlink:href="#11" y="23.881"/><use xlink:href="#19" y="26.052"/><use xlink:href="#20" y="28.223"/><use xlink:href="#21" y="30.394"/><use xlink:href="#22" y="32.565"/><use xlink:href="#23" y="34.736"/><use xlink:href="#24" y="36.907"/><use xlink:href="#25" y="39.078"/><use xlink:href="#26" y="41.249"/><use xlink:href="#27" y="43.42"/><use xlink:href="#28" y="45.591"/><text y="49.432" class="j">[download]</text><text x="13.026" y="49.432" class="t">1.1%</text><text x="18.036" y="49.432" class="j">of</text><text x="24.048" y="49.432" class="j">2.78MiB</text><text x="32.064" y="49.432" class="j">at</text><text x="37.074" y="49.432" class="f">12.35MiB/s</text><text x="48.096" y="49.432" class="j">ETA</text><text x="52.104" y="49.432" class="u">00:00</text></svg><svg x="7776"><use xlink:href="#a"/><use xlink:href="#b" x="56.996" y="47.737"/><use xlink:href="#4"/><use xlink:href="#5" y="2.171"/><use xlink:href="#6" y="4.342"/><use xlink:href="#7" y="6.513"/><use xlink:href="#8" y="8.684"/><use xlink:href="#9" y="10.855"/><use xlink:href="#10" y="13.026"/><use xlink:href="#11" y="23.881"/><use xlink:href="#19" y="26.052"/><use xlink:href="#20" y="28.223"/><use xlink:href="#21" y="30.394"/><use xlink:href="#22" y="32.565"/><use xlink:href="#23" y="34.736"/><use xlink:href="#24" y="36.907"/><use xlink:href="#25" y="39.078"/><use xlink:href="#26" y="41.249"/><use xlink:href="#27" y="43.42"/><use xlink:href="#28" y="45.591"/><text y="49.432" class="j">[download]</text><text x="13.026" y="49.432" class="t">2.2%</text><text x="18.036" y="49.432" class="j">of</text><text x="24.048" y="49.432" class="j">2.78MiB</text><text x="32.064" y="49.432" class="j">at</text><text x="37.074" y="49.432" class="f">16.95MiB/s</text><text x="48.096" y="49.432" class="j">ETA</text><text x="52.104" y="49.432" class="u">00:00</text></svg><svg x="7938"><use xlink:href="#a"/><use xlink:href="#b" x="56.996" y="47.737"/><use xlink:href="#4"/><use xlink:href="#5" y="2.171"/><use xlink:href="#6" y="4.342"/><use xlink:href="#7" y="6.513"/><use xlink:href="#8" y="8.684"/><use xlink:href="#9" y="10.855"/><use xlink:href="#10" y="13.026"/><use xlink:href="#11" y="23.881"/><use xlink:href="#19" y="26.052"/><use xlink:href="#20" y="28.223"/><use xlink:href="#21" y="30.394"/><use xlink:href="#22" y="32.565"/><use xlink:href="#23" y="34.736"/><use xlink:href="#24" y="36.907"/><use xlink:href="#25" y="39.078"/><use xlink:href="#26" y="41.249"/><use xlink:href="#27" y="43.42"/><use xlink:href="#28" y="45.591"/><text y="49.432" class="j">[download]</text><text x="13.026" y="49.432" class="t">4.5%</text><text x="18.036" y="49.432" class="j">of</text><text x="24.048" y="49.432" class="j">2.78MiB</text><text x="32.064" y="49.432" class="j">at</text><text x="37.074" y="49.432" class="f">24.55MiB/s</text><text x="48.096" y="49.432" class="j">ETA</text><text x="52.104" y="49.432" class="u">00:00</text></svg><svg x="8100"><use xlink:href="#a"/><use xlink:href="#b" x="56.996" y="47.737"/><use xlink:href="#4"/><use xlink:href="#5" y="2.171"/><use xlink:href="#6" y="4.342"/><use xlink:href="#7" y="6.513"/><use xlink:href="#8" y="8.684"/><use xlink:href="#9" y="10.855"/><use xlink:href="#10" y="13.026"/><use xlink:href="#11" y="23.881"/><use xlink:href="#19" y="26.052"/><use xlink:href="#20" y="28.223"/><use xlink:href="#21" y="30.394"/><use xlink:href="#22" y="32.565"/><use xlink:href="#23" y="34.736"/><use xlink:href="#24" y="36.907"/><use xlink:href="#25" y="39.078"/><use xlink:href="#26" y="41.249"/><use xlink:href="#27" y="43.42"/><use xlink:href="#28" y="45.591"/><text y="49.432" class="j">[download]</text><text x="13.026" y="49.432" class="t">9.0%</text><text x="18.036" y="49.432" class="j">of</text><text x="24.048" y="49.432" class="j">2.78MiB</text><text x="32.064" y="49.432" class="j">at</text><text x="37.074" y="49.432" class="f">36.86MiB/s</text><text x="48.096" y="49.432" class="j">ETA</text><text x="52.104" y="49.432" class="u">00:00</text></svg><svg x="8262"><use xlink:href="#a"/><use xlink:href="#b" x="56.996" y="47.737"/><use xlink:href="#4"/><use xlink:href="#5" y="2.171"/><use xlink:href="#6" y="4.342"/><use xlink:href="#7" y="6.513"/><use xlink:href="#8" y="8.684"/><use xlink:href="#9" y="10.855"/><use xlink:href="#10" y="13.026"/><use xlink:href="#11" y="23.881"/><use xlink:href="#19" y="26.052"/><use xlink:href="#20" y="28.223"/><use xlink:href="#21" y="30.394"/><use xlink:href="#22" y="32.565"/><use xlink:href="#23" y="34.736"/><use xlink:href="#24" y="36.907"/><use xlink:href="#25" y="39.078"/><use xlink:href="#26" y="41.249"/><use xlink:href="#27" y="43.42"/><use xlink:href="#28" y="45.591"/><text y="49.432" class="j">[download]</text><text x="12.024" y="49.432" class="t">17.9%</text><text x="18.036" y="49.432" class="j">of</text><text x="24.048" y="49.432" class="j">2.78MiB</text><text x="32.064" y="49.432" class="j">at</text><text x="37.074" y="49.432" class="f">48.83MiB/s</text><text x="48.096" y="49.432" class="j">ETA</text><text x="52.104" y="49.432" class="u">00:00</text></svg><svg x="8424"><use xlink:href="#a"/><use xlink:href="#b" x="56.996" y="47.737"/><use xlink:href="#4"/><use xlink:href="#5" y="2.171"/><use xlink:href="#6" y="4.342"/><use xlink:href="#7" y="6.513"/><use xlink:href="#8" y="8.684"/><use xlink:href="#9" y="10.855"/><use xlink:href="#10" y="13.026"/><use xlink:href="#11" y="23.881"/><use xlink:href="#19" y="26.052"/><use xlink:href="#20" y="28.223"/><use xlink:href="#21" y="30.394"/><use xlink:href="#22" y="32.565"/><use xlink:href="#23" y="34.736"/><use xlink:href="#24" y="36.907"/><use xlink:href="#25" y="39.078"/><use xlink:href="#26" y="41.249"/><use xlink:href="#27" y="43.42"/><use xlink:href="#28" y="45.591"/><text y="49.432" class="j">[download]</text><text x="12.024" y="49.432" class="t">35.9%</text><text x="18.036" y="49.432" class="j">of</text><text x="24.048" y="49.432" class="j">2.78MiB</text><text x="32.064" y="49.432" class="j">at</text><text x="37.074" y="49.432" class="f">67.92MiB/s</text><text x="48.096" y="49.432" class="j">ETA</text><text x="52.104" y="49.432" class="u">00:00</text></svg><svg x="8586"><use xlink:href="#a"/><use xlink:href="#b" x="56.996" y="47.737"/><use xlink:href="#4"/><use xlink:href="#5" y="2.171"/><use xlink:href="#6" y="4.342"/><use xlink:href="#7" y="6.513"/><use xlink:href="#8" y="8.684"/><use xlink:href="#9" y="10.855"/><use xlink:href="#10" y="13.026"/><use xlink:href="#11" y="23.881"/><use xlink:href="#19" y="26.052"/><use xlink:href="#20" y="28.223"/><use xlink:href="#21" y="30.394"/><use xlink:href="#22" y="32.565"/><use xlink:href="#23" y="34.736"/><use xlink:href="#24" y="36.907"/><use xlink:href="#25" y="39.078"/><use xlink:href="#26" y="41.249"/><use xlink:href="#27" y="43.42"/><use xlink:href="#28" y="45.591"/><text y="49.432" class="j">[download]</text><text x="12.024" y="49.432" class="t">71.9%</text><text x="18.036" y="49.432" class="j">of</text><text x="24.048" y="49.432" class="j">2.78MiB</text><text x="32.064" y="49.432" class="j">at</text><text x="37.074" y="49.432" class="f">83.77MiB/s</text><text x="48.096" y="49.432" class="j">ETA</text><text x="52.104" y="49.432" class="u">00:00</text></svg><svg x="8748"><use xlink:href="#a"/><use xlink:href="#b" x="56.996" y="47.737"/><use xlink:href="#4"/><use xlink:href="#5" y="2.171"/><use xlink:href="#6" y="4.342"/><use xlink:href="#7" y="6.513"/><use xlink:href="#8" y="8.684"/><use xlink:href="#9" y="10.855"/><use xlink:href="#10" y="13.026"/><use xlink:href="#11" y="23.881"/><use xlink:href="#19" y="26.052"/><use xlink:href="#20" y="28.223"/><use xlink:href="#21" y="30.394"/><use xlink:href="#22" y="32.565"/><use xlink:href="#23" y="34.736"/><use xlink:href="#24" y="36.907"/><use xlink:href="#25" y="39.078"/><use xlink:href="#26" y="41.249"/><use xlink:href="#27" y="43.42"/><use xlink:href="#28" y="45.591"/><text y="49.432" class="j">[download]</text><text x="11.022" y="49.432" class="t">100.0%</text><text x="18.036" y="49.432" class="j">of</text><text x="24.048" y="49.432" class="j">2.78MiB</text><text x="32.064" y="49.432" class="j">at</text><text x="37.074" y="49.432" class="f">90.05MiB/s</text><text x="48.096" y="49.432" class="j">ETA</text><text x="52.104" y="49.432" class="u">00:00</text></svg><svg x="8910"><use xlink:href="#a"/><use xlink:href="#b" x="54.996" y="47.737"/><use xlink:href="#4"/><use xlink:href="#5" y="2.171"/><use xlink:href="#6" y="4.342"/><use xlink:href="#7" y="6.513"/><use xlink:href="#8" y="8.684"/><use xlink:href="#9" y="10.855"/><use xlink:href="#10" y="13.026"/><use xlink:href="#11" y="23.881"/><use xlink:href="#19" y="26.052"/><use xlink:href="#20" y="28.223"/><use xlink:href="#21" y="30.394"/><use xlink:href="#22" y="32.565"/><use xlink:href="#23" y="34.736"/><use xlink:href="#24" y="36.907"/><use xlink:href="#25" y="39.078"/><use xlink:href="#26" y="41.249"/><use xlink:href="#27" y="43.42"/><use xlink:href="#28" y="45.591"/><use xlink:href="#29" y="47.762"/></svg><svg x="9072"><use xlink:href="#a"/><use xlink:href="#b" x="-.004" y="49.908"/><use xlink:href="#4"/><use xlink:href="#5" y="2.171"/><use xlink:href="#6" y="4.342"/><use xlink:href="#7" y="6.513"/><use xlink:href="#8" y="8.684"/><use xlink:href="#9" y="10.855"/><use xlink:href="#10" y="13.026"/><use xlink:href="#11" y="23.881"/><use xlink:href="#19" y="26.052"/><use xlink:href="#20" y="28.223"/><use xlink:href="#21" y="30.394"/><use xlink:href="#22" y="32.565"/><use xlink:href="#23" y="34.736"/><use xlink:href="#24" y="36.907"/><use xlink:href="#25" y="39.078"/><use xlink:href="#26" y="41.249"/><use xlink:href="#27" y="43.42"/><use xlink:href="#28" y="45.591"/><use xlink:href="#29" y="47.762"/></svg><svg x="9234"><use xlink:href="#a"/><use xlink:href="#b" x="-.004" y="52.079"/><use xlink:href="#4"/><use xlink:href="#5" y="2.171"/><use xlink:href="#6" y="4.342"/><use xlink:href="#7" y="6.513"/><use xlink:href="#8" y="8.684"/><use xlink:href="#9" y="10.855"/><use xlink:href="#10" y="13.026"/><use xlink:href="#11" y="23.881"/><use xlink:href="#19" y="26.052"/><use xlink:href="#20" y="28.223"/><use xlink:href="#21" y="30.394"/><use xlink:href="#22" y="32.565"/><use xlink:href="#23" y="34.736"/><use xlink:href="#24" y="36.907"/><use xlink:href="#25" y="39.078"/><use xlink:href="#26" y="41.249"/><use xlink:href="#27" y="43.42"/><use xlink:href="#28" y="45.591"/><use xlink:href="#29" y="47.762"/><use xlink:href="#30" y="49.933"/></svg><svg x="9396"><use xlink:href="#a"/><use xlink:href="#b" x="-.004" y="54.25"/><use xlink:href="#4"/><use xlink:href="#5" y="2.171"/><use xlink:href="#6" y="4.342"/><use xlink:href="#7" y="6.513"/><use xlink:href="#8" y="8.684"/><use xlink:href="#9" y="10.855"/><use xlink:href="#10" y="13.026"/><use xlink:href="#11" y="23.881"/><use xlink:href="#19" y="26.052"/><use xlink:href="#20" y="28.223"/><use xlink:href="#21" y="30.394"/><use xlink:href="#22" y="32.565"/><use xlink:href="#23" y="34.736"/><use xlink:href="#24" y="36.907"/><use xlink:href="#25" y="39.078"/><use xlink:href="#26" y="41.249"/><use xlink:href="#27" y="43.42"/><use xlink:href="#28" y="45.591"/><use xlink:href="#29" y="47.762"/><use xlink:href="#30" y="49.933"/><use xlink:href="#31" y="52.104"/></svg><svg x="9558"><use xlink:href="#a"/><use xlink:href="#b" x="-.004" y="54.25"/><use xlink:href="#4"/><use xlink:href="#5" y="2.171"/><use xlink:href="#6" y="4.342"/><use xlink:href="#7" y="6.513"/><use xlink:href="#8" y="8.684"/><use xlink:href="#9" y="10.855"/><use xlink:href="#10" y="13.026"/><use xlink:href="#11" y="23.881"/><use xlink:href="#19" y="26.052"/><use xlink:href="#20" y="28.223"/><use xlink:href="#21" y="30.394"/><use xlink:href="#22" y="32.565"/><use xlink:href="#23" y="34.736"/><use xlink:href="#24" y="36.907"/><use xlink:href="#25" y="39.078"/><use xlink:href="#26" y="41.249"/><use xlink:href="#27" y="43.42"/><use xlink:href="#28" y="45.591"/><use xlink:href="#29" y="47.762"/><use xlink:href="#30" y="49.933"/><use xlink:href="#31" y="52.104"/></svg><svg x="9720"><use xlink:href="#a"/><use xlink:href="#b" x="-.004" y="54.25"/><use xlink:href="#4"/><use xlink:href="#5" y="2.171"/><use xlink:href="#6" y="4.342"/><use xlink:href="#7" y="6.513"/><use xlink:href="#8" y="8.684"/><use xlink:href="#9" y="10.855"/><use xlink:href="#10" y="13.026"/><use xlink:href="#11" y="23.881"/><use xlink:href="#19" y="26.052"/><use xlink:href="#20" y="28.223"/><use xlink:href="#21" y="30.394"/><use xlink:href="#22" y="32.565"/><use xlink:href="#23" y="34.736"/><use xlink:href="#24" y="36.907"/><use xlink:href="#25" y="39.078"/><use xlink:href="#26" y="41.249"/><use xlink:href="#27" y="43.42"/><use xlink:href="#28" y="45.591"/><use xlink:href="#29" y="47.762"/><use xlink:href="#30" y="49.933"/><use xlink:href="#31" y="52.104"/></svg><svg x="9882"><use xlink:href="#a"/><use xlink:href="#b" x="25.996" y="54.25"/><use xlink:href="#4"/><use xlink:href="#5" y="2.171"/><use xlink:href="#6" y="4.342"/><use xlink:href="#7" y="6.513"/><use xlink:href="#8" y="8.684"/><use xlink:href="#9" y="10.855"/><use xlink:href="#10" y="13.026"/><use xlink:href="#11" y="23.881"/><use xlink:href="#19" y="26.052"/><use xlink:href="#20" y="28.223"/><use xlink:href="#21" y="30.394"/><use xlink:href="#22" y="32.565"/><use xlink:href="#23" y="34.736"/><use xlink:href="#24" y="36.907"/><use xlink:href="#25" y="39.078"/><use xlink:href="#26" y="41.249"/><use xlink:href="#27" y="43.42"/><use xlink:href="#28" y="45.591"/><use xlink:href="#29" y="47.762"/><use xlink:href="#30" y="49.933"/><use xlink:href="#31" y="52.104"/><use xlink:href="#1" y="54.275"/></svg><svg x="10044"><use xlink:href="#a"/><use xlink:href="#b" x="25.996" y="54.25"/><use xlink:href="#4"/><use xlink:href="#5" y="2.171"/><use xlink:href="#6" y="4.342"/><use xlink:href="#7" y="6.513"/><use xlink:href="#8" y="8.684"/><use xlink:href="#9" y="10.855"/><use xlink:href="#10" y="13.026"/><use xlink:href="#11" y="23.881"/><use xlink:href="#19" y="26.052"/><use xlink:href="#20" y="28.223"/><use xlink:href="#21" y="30.394"/><use xlink:href="#22" y="32.565"/><use xlink:href="#23" y="34.736"/><use xlink:href="#24" y="36.907"/><use xlink:href="#25" y="39.078"/><use xlink:href="#26" y="41.249"/><use xlink:href="#27" y="43.42"/><use xlink:href="#28" y="45.591"/><use xlink:href="#29" y="47.762"/><use xlink:href="#30" y="49.933"/><use xlink:href="#31" y="52.104"/><use xlink:href="#1" y="54.275"/></svg><svg x="10206"><use xlink:href="#a"/><use xlink:href="#b" x="-.004" y="54.25"/><use xlink:href="#5"/><use xlink:href="#6" y="2.171"/><use xlink:href="#7" y="4.342"/><use xlink:href="#8" y="6.513"/><use xlink:href="#9" y="8.684"/><use xlink:href="#10" y="10.855"/><use xlink:href="#11" y="21.71"/><use xlink:href="#19" y="23.881"/><use xlink:href="#20" y="26.052"/><use xlink:href="#21" y="28.223"/><use xlink:href="#22" y="30.394"/><use xlink:href="#23" y="32.565"/><use xlink:href="#24" y="34.736"/><use xlink:href="#25" y="36.907"/><use xlink:href="#26" y="39.078"/><use xlink:href="#27" y="41.249"/><use xlink:href="#28" y="43.42"/><use xlink:href="#29" y="45.591"/><use xlink:href="#30" y="47.762"/><use xlink:href="#31" y="49.933"/><use xlink:href="#1" y="52.104"/></svg></svg></g></g></svg></svg>